<svg width="387" height="387" viewBox="0 0 387 387" fill="none" xmlns="http://www.w3.org/2000/svg">
<rect width="387" height="387" rx="51.6" fill="#2563EB"/>
<path d="M54.3226 152.8C69.6713 103.063 113.33 65.434 165.209 57.2303C178.714 55.0941 203.278 56.556 218.215 60.3838C252.463 69.1599 280.803 90.0953 301.097 121.613C304.151 126.356 306.407 130.477 306.111 130.769C305.813 131.062 298.938 133.795 290.831 136.842C278.113 141.624 275.686 142.086 273.132 140.218C269.191 137.338 259.408 137.468 255.14 140.455C247.854 145.557 247.631 158.421 254.718 164.833C256.814 166.728 260.491 167.899 264.358 167.899C274.916 167.899 282.364 157.732 278.755 148.244C277.097 143.884 278.301 143.5 282.293 147.111C284.891 149.46 285.87 149.47 292.936 147.217C303.999 143.689 325.028 139.672 332.435 139.672C340.71 139.672 345.204 144.079 345.204 152.192C345.204 157.596 343.926 159.477 333.278 169.747L321.354 181.25L320.516 200.486C319.573 222.123 316.863 233.829 308.88 250.754C301.324 266.77 292.415 279.366 280.271 291.197C267.25 303.884 264.222 306.19 251.185 313.355C227.586 326.321 205.283 331.394 177.903 330.023C148.665 328.558 125.144 319.929 101.527 302.005L89.9879 293.248L79.6879 295.675C74.0211 297.011 64.5253 298.114 58.5851 298.127C48.8272 298.149 47.4586 297.739 44.4303 293.89C39.9023 288.138 40.2097 283.661 45.6468 276.158C58.4234 258.528 98.1589 230.996 154.689 200.604C167.162 193.897 166.497 193.545 172.029 209.826C173.577 214.378 175.952 218.319 177.311 218.585C178.859 218.887 187.093 209.741 199.407 194.04C219.572 168.329 221.846 164.864 219.501 163.415C218.752 162.952 204.162 160.531 187.079 158.034C164.929 154.797 155.519 153.993 154.28 155.232C153.039 156.472 153.735 160.138 156.7 168.014C160.841 179.015 160.524 181.614 155.027 181.693C151.159 181.748 111.185 195.67 84.1464 206.377C62.1344 215.093 54.6008 217.433 52.6013 216.175C46.0626 212.059 47.03 176.432 54.3226 152.8Z" fill="#EFF6FF"/>
</svg>
