<svg width="1407" height="387" viewBox="0 0 1407 387" fill="none" xmlns="http://www.w3.org/2000/svg">
<rect width="387" height="387" rx="51.6" fill="#2563EB"/>
<path d="M54.3226 152.8C69.6713 103.063 113.33 65.434 165.209 57.2303C178.714 55.0941 203.278 56.556 218.215 60.3838C252.463 69.1599 280.803 90.0953 301.097 121.613C304.151 126.356 306.407 130.477 306.111 130.769C305.813 131.062 298.938 133.795 290.831 136.842C278.113 141.624 275.686 142.086 273.132 140.218C269.191 137.338 259.408 137.468 255.14 140.455C247.854 145.557 247.631 158.421 254.718 164.833C256.814 166.728 260.491 167.899 264.358 167.899C274.916 167.899 282.364 157.732 278.755 148.244C277.097 143.884 278.301 143.5 282.293 147.111C284.891 149.46 285.87 149.47 292.936 147.217C303.999 143.689 325.028 139.672 332.435 139.672C340.71 139.672 345.204 144.079 345.204 152.192C345.204 157.596 343.926 159.477 333.278 169.747L321.354 181.25L320.516 200.486C319.573 222.123 316.863 233.829 308.88 250.754C301.324 266.77 292.415 279.366 280.271 291.197C267.25 303.884 264.222 306.19 251.185 313.355C227.586 326.321 205.283 331.394 177.903 330.023C148.665 328.558 125.144 319.929 101.527 302.005L89.9879 293.248L79.6879 295.675C74.0211 297.011 64.5253 298.114 58.5851 298.127C48.8272 298.149 47.4586 297.739 44.4303 293.89C39.9023 288.138 40.2097 283.661 45.6468 276.158C58.4234 258.528 98.1589 230.996 154.689 200.604C167.162 193.897 166.497 193.545 172.029 209.826C173.577 214.378 175.952 218.319 177.311 218.585C178.859 218.887 187.093 209.741 199.407 194.04C219.572 168.329 221.846 164.864 219.501 163.415C218.752 162.952 204.162 160.531 187.079 158.034C164.929 154.797 155.519 153.993 154.28 155.232C153.039 156.472 153.735 160.138 156.7 168.014C160.841 179.015 160.524 181.614 155.027 181.693C151.159 181.748 111.185 195.67 84.1464 206.377C62.1344 215.093 54.6008 217.433 52.6013 216.175C46.0626 212.059 47.03 176.432 54.3226 152.8Z" fill="#EFF6FF"/>
<path d="M519.4 267.6L475 116.4H514.9L544.3 239.1L536.8 238.8L570.4 116.4H615.4L649 238.8L641.2 239.1L670.9 116.4H710.8L666.4 267.6H624.4L588.7 141.6H597.1L561.4 267.6H519.4Z" fill="#0B1023"/>
<path d="M767.177 271.2C754.577 271.2 744.177 269.2 735.977 265.2C727.777 261 721.677 255.5 717.677 248.7C713.877 241.7 711.977 234 711.977 225.6C711.977 216.4 714.277 208.3 718.877 201.3C723.677 194.3 730.777 188.8 740.177 184.8C749.777 180.8 761.777 178.8 776.177 178.8H813.677C813.677 171.4 812.677 165.3 810.677 160.5C808.677 155.5 805.577 151.8 801.377 149.4C797.177 147 791.577 145.8 784.577 145.8C776.977 145.8 770.477 147.5 765.077 150.9C759.877 154.1 756.677 159.1 755.477 165.9H716.177C717.177 155.1 720.677 145.8 726.677 138C732.877 130 740.977 123.8 750.977 119.4C761.177 115 772.477 112.8 784.877 112.8C799.077 112.8 811.377 115.2 821.777 120C832.177 124.8 840.177 131.7 845.777 140.7C851.377 149.7 854.177 160.8 854.177 174V267.6H819.977L815.477 244.5C813.277 248.5 810.677 252.1 807.677 255.3C804.677 258.5 801.177 261.3 797.177 263.7C793.177 266.1 788.677 267.9 783.677 269.1C778.677 270.5 773.177 271.2 767.177 271.2ZM776.777 240C781.977 240 786.577 239.1 790.577 237.3C794.777 235.3 798.377 232.7 801.377 229.5C804.377 226.1 806.677 222.3 808.277 218.1C810.077 213.7 811.277 209 811.877 204V203.7H780.977C774.777 203.7 769.677 204.5 765.677 206.1C761.877 207.5 759.077 209.6 757.277 212.4C755.477 215.2 754.577 218.4 754.577 222C754.577 226 755.477 229.3 757.277 231.9C759.077 234.5 761.677 236.5 765.077 237.9C768.477 239.3 772.377 240 776.777 240Z" fill="#0B1023"/>
<path d="M893.884 333.6L930.484 250.8H921.484L860.884 116.4H904.984L948.184 213.9L987.184 116.4H1030.08L936.784 333.6H893.884Z" fill="#0B1023"/>
<path d="M1037.44 267.6V57.6H1062.64V267.6H1037.44Z" fill="#0B1023"/>
<path d="M1081.19 267.6V118.8H1106.39V267.6H1081.19ZM1093.79 89.1C1088.79 89.1 1084.59 87.4 1081.19 84C1077.79 80.6 1076.09 76.4 1076.09 71.4C1076.09 66.6 1077.79 62.5 1081.19 59.1C1084.59 55.7 1088.79 54 1093.79 54C1098.59 54 1102.69 55.7 1106.09 59.1C1109.49 62.5 1111.19 66.7 1111.19 71.7C1111.19 76.5 1109.49 80.6 1106.09 84C1102.69 87.4 1098.59 89.1 1093.79 89.1Z" fill="#0B1023"/>
<path d="M1123.27 267.6V118.8H1145.47L1147.87 142.2H1149.07C1154.27 134 1161.07 127.5 1169.47 122.7C1177.87 117.7 1187.97 115.2 1199.77 115.2C1211.17 115.2 1221.17 117.6 1229.77 122.4C1238.37 127 1244.97 134.2 1249.57 144C1254.37 153.6 1256.77 165.8 1256.77 180.6V267.6H1231.57V183.3C1231.57 167.9 1228.27 156.3 1221.67 148.5C1215.07 140.7 1205.57 136.8 1193.17 136.8C1184.57 136.8 1176.87 138.9 1170.07 143.1C1163.47 147.3 1158.17 153.4 1154.17 161.4C1150.37 169.2 1148.47 178.9 1148.47 190.5V267.6H1123.27Z" fill="#0B1023"/>
<path d="M1335.83 271.2C1321.63 271.2 1309.03 268 1298.03 261.6C1287.03 255 1278.33 245.9 1271.93 234.3C1265.73 222.5 1262.63 208.8 1262.63 193.2C1262.63 177.4 1265.73 163.7 1271.93 152.1C1278.13 140.5 1286.73 131.5 1297.73 125.1C1308.93 118.5 1321.83 115.2 1336.43 115.2C1351.03 115.2 1363.53 118.5 1373.93 125.1C1384.33 131.5 1392.33 140 1397.93 150.6C1403.53 161 1406.33 172.4 1406.33 184.8C1406.33 186.8 1406.33 189 1406.33 191.4C1406.33 193.6 1406.23 196.1 1406.03 198.9H1281.53V179.4H1381.43C1380.83 165.2 1376.23 154.2 1367.63 146.4C1359.23 138.6 1348.63 134.7 1335.83 134.7C1327.23 134.7 1319.23 136.6 1311.83 140.4C1304.43 144.2 1298.43 149.9 1293.83 157.5C1289.43 165.1 1287.23 174.7 1287.23 186.3V194.7C1287.23 207.1 1289.53 217.4 1294.13 225.6C1298.73 233.8 1304.73 240 1312.13 244.2C1319.73 248.2 1327.63 250.2 1335.83 250.2C1346.23 250.2 1354.93 247.8 1361.93 243C1368.93 238.2 1374.03 231.6 1377.23 223.2H1402.13C1399.53 232.4 1395.23 240.6 1389.23 247.8C1383.23 255 1375.73 260.7 1366.73 264.9C1357.93 269.1 1347.63 271.2 1335.83 271.2Z" fill="#0B1023"/>
</svg>
